<svg xmlns="http://www.w3.org/2000/svg" width="944.000000pt" height="173.000000pt" version="1.0" viewBox="0 0 944.000000 173.000000"><g fill="#fcfcfc"><path d="M455 2.6c-20.6 8-32.3 28.3-36 62.3-1.2 10.7-1 14.1 1.7 37.3l1.6 13.8-5.9 7.7C403.9 140.3 390 151 380.9 151c-12 0-18 9.3-11 17.2 2.5 2.8 3.5 3.2 9.3 3.6 13.9.9 27.5-5.8 43.7-21.5l10.5-10.2 5.2 4.9c9.7 9.2 21.5 13.4 37.4 13.4 13.9 0 25.2-3.7 38-12.4l5.5-3.7 5 4.9c14.1 14 32.7 21.8 51.9 21.8 10.2 0 16.8-1.5 25.9-5.8 6.7-3.2 16.5-10.1 18-12.9 2.7-4.7 0-10.4-6-12.9-5.2-2.2-7.4-1.7-15.8 3.6-9.4 6-12.7 7-22 7-8.3 0-15.5-1.8-22.3-5.5-5.4-2.9-15.8-12.7-16.8-15.7-.4-1.4 1.9-4.5 9.3-12.2 20.4-21.4 31.9-47.8 28.3-64.9-3.1-15.2-22.6-22.9-38.5-15.2-16.1 7.8-28 28.4-30.7 53.1-1.1 10-.8 14.9 1.9 32 .4 2.8 0 3.5-5.9 7.9-12.8 9.7-24 12.5-35.4 8.9-6.5-2-14.3-8.4-16.4-13.4-1.1-2.7-.7-3.7 10.8-21.7C480 71.1 486.4 58.7 490 44.4c2.5-9.8 2.5-16.5 0-24.5-3.6-11.8-11.1-17.1-25-17.6-4.7-.1-9.2 0-10 .3zm11 22.5c3.1 5.8-1.4 21.2-12.6 42.9-8.3 16-10 18.7-11.1 17.6-.5-.4-.8-7.1-.7-14.9 0-11.6.4-15.7 2.3-22.2 2.6-9.2 6.6-16.7 11.3-21.1 5.9-5.6 8.8-6.2 10.8-2.3zm87 31.5c0 8.1-8.2 24.1-17 33.4l-6.1 6.5.5-6.3c1.8-20.5 13.3-41 20.9-37 .9.5 1.7 2 1.7 3.4zM48.7 8c-14 2.4-29.7 15.2-37 30.3-14.8 30.6-13.6 71.9 2.9 101.5 4.8 8.5 15.4 19.1 22.6 22.5 14.2 6.7 29 6.2 41.1-1.5 6.2-3.9 14.9-13.6 19.1-21.2 5.7-10.4 10.6-27.2 10.6-36.9v-2.8l-14.1.3-14.1.3-2.2 7.5c-3.5 12.2-8.6 18.7-16.6 21.1-8.5 2.6-17.8-3.2-23.2-14.3-8.4-17.6-6.9-44.6 3.3-57.4 8.6-10.8 18.8-12.8 27.2-5.3 5.7 4.9 8 10.3 11.2 25.1L80 80h28v-6.3c0-3.4-.9-10.4-1.9-15.5C98.5 21.6 77.5 3.2 48.7 8zM201 88.5v78.6l15.3-.3 15.2-.3.3-26.8.2-26.7h30v54h30V10h-30v64.1l-15.2-.3-15.3-.3v-63l-15.2-.3-15.3-.3v78.6zM860 87.5V165h82l-.2-16.3-.3-16.2-24.7-.3-24.8-.2v-28l17.3-.2 17.2-.3V88c0-11.7-.3-15.5-1.2-15.6-.7-.1-8.5-.2-17.3-.3l-16.1-.1.3-14.8.3-14.7L917 42l24.5-.5v-31l-40.7-.3L860 10v77.5zM687 26.9c0 8.8.4 16.2.8 16.5.4.2 10.7.6 22.7.7 12.1.1 22.3.3 22.7.5.9.6-.4 4.1-20.2 54.9-9.5 24.2-18 46.2-19 49-1 2.7-2.8 7.4-3.9 10.3L688 164h95l-.2-16.3-.3-16.2-22.2-.3-22.3-.2 2.1-5.3c1.2-2.8 5.9-15.3 10.6-27.7 9-23.9 18.9-49.9 27.2-71.9 2.8-7.4 5.1-13.8 5.1-14.3 0-.4-21.6-.8-48-.8h-48v15.9z"/></g></svg>