<svg xmlns="http://www.w3.org/2000/svg" xml:space="preserve" x="0px" y="0px" width="1176pt" height="1176pt" viewBox="0 0 1024 496"><path fill="#fff" d="M193.466 497c-.5-56.318-.526-112.635-.595-168.953-.004-2.575.682-5.344-1.442-7.867-3.014 2.471-5.202 5.46-7.441 8.523-8.893 12.168-21.204 20.024-34.66 26.088-19.955 8.994-41.13 9.668-62.12 6.076C69.165 357.78 53.528 349 39.748 336.38c-12.579-11.52-20.91-25.517-26.819-40.906-2.883-7.509-5.068-15.72-5.045-24.164.092-33.324.063-66.648.074-99.973.001-2.678-.165-5.462 1.812-7.576 1.658-1.772 3.248-4.352 6.126-3.567 2.982.813 5.288 2.856 5.91 6.126.308 1.62.354 3.307.355 4.964.012 29.492-.301 58.988.103 88.475.246 17.982 4.448 35.205 14.98 50.14 12.256 17.376 28.714 29.007 49.31 35.024 12.358 3.61 24.964 3.097 37.06 1.378 17.61-2.504 32.33-11.557 45.078-24.544 12.22-12.448 20.065-26.677 23.854-43.41.542-2.393.321-4.976.324-7.472.027-32.49.036-64.982.035-97.473 0-3.719.056-7.401 3.189-10.109 1.913-1.653 3.926-3.379 6.675-2.41 2.95 1.04 5.427 2.777 5.553 6.32.111 3.15.012 6.309.011 9.464-.022 104.804-.043 209.609-.07 314.413 0 1.665-.07 3.33-.186 5.458-4.767.463-9.457.463-14.612.463zM505.897 157c-.01-41.658-.03-82.816-.021-123.973.001-7.78 2.371-10.658 8.27-10.205 4.02.309 6.518 2.328 6.898 6.493.136 1.489.09 2.996.09 4.495-.002 54.322-.007 108.644-.012 162.965 0 .5-.076 1.014.014 1.498.395 2.112-1.128 5.301 1.967 5.957 2.565.543 3.501-2.282 4.991-4.086 7.087-8.582 14.743-16.54 24.116-22.83 10.071-6.76 20.82-12.135 32.611-14.319 10.486-1.941 21.227-5.197 31.93-3.113 14.712 2.863 29.877 4.582 43.126 12.658 24.082 14.678 42.131 34.123 50.326 61.834 5.325 18.008 5.3 36.2 1.616 54.203-2.054 10.034-5.63 19.827-11.418 28.885-4.95 7.748-10.148 15.33-16.59 21.55-10.775 10.407-23.403 18.5-37.76 23.445-11.917 4.105-23.975 6.903-36.8 6.711-16.788-.251-32.183-4.816-47.275-11.787-9.73-4.494-17.949-11.111-25.476-18.106-7.525-6.992-13.854-15.639-18.592-25.047-5.395-10.713-9.694-21.84-11.38-33.813-.346-2.461-.596-4.96-.599-7.44-.039-38.492-.03-76.983-.032-115.975m188.571 136.802c2.662-9.438 4.4-18.877 4.474-28.862.071-9.69-1.905-18.801-4.425-27.85-2.454-8.81-6.777-16.853-12.39-24.21-7.239-9.488-16.106-17.08-25.963-23.666-8.826-5.897-18.62-9.895-28.842-11.765-15.304-2.8-30.71-2.196-45.663 3.065-5.981 2.104-12.056 4.436-17.028 8.094-12.278 9.033-23.425 19.127-31.741 32.458-6.089 9.762-9.407 20.28-11.32 30.99-2.518 14.107-.711 28.614 4.37 42.034 6.391 16.885 16.799 31.164 31.819 41.787 8.868 6.273 18.024 12.3 28.59 14.683 13.823 3.117 27.92 3.384 42.059.79 16.958-3.112 30.763-11.642 43.096-23.213 10.133-9.506 17.069-21.088 22.964-34.335zM326.949 347.923c9.419 3.913 18.843 5.245 28.624 4.974 5.4-.15 9.182 3.354 9.286 7.777.097 4.142-3.986 8.067-9.036 8.269-5.62.225-11.028-.083-16.667-1.86-6.043-1.903-12.566-2.109-18.781-4.367-11.9-4.325-22.426-10.642-31.626-19.149-10.402-9.619-20.412-19.805-26.058-33.018-4.255-9.96-9.037-19.91-9.07-31.26-.015-5.447-2.228-10.748-1.731-16.329 1.568-17.638 5.059-34.652 13.98-50.33 11.103-19.51 27.347-33.161 47.226-42.806 10.395-5.043 21.41-8.017 33.081-7.862 4.528.06 8.164-3.329 13.053-2.49 20.597 3.536 40.92 6.874 58.608 19.852 17.22 12.635 29.249 28.837 37.651 47.939 3.097 7.039 5.438 14.674 4.87 22.719-.141 2.018.139 3.982 1.242 5.769 4.322 7-2.382 17.716-11.484 17.635-57.659-.511-115.325-.238-172.99-.209-8.199.004-8.358.066-7.103 7.909 2.17 13.572 8.303 25.398 16.144 36.545 7.333 10.424 17.295 17.79 27.66 24.68 3.828 2.544 8.084 4.622 13.12 5.612M399.5 257.85c12.821.003 25.643.023 38.464.002 6.762-.012 7.568-.655 6.897-7.547-.805-8.282-3.561-16.24-7.155-23.563-6.046-12.322-14.759-23.021-25.49-31.532-12.607-9.997-26.912-16.416-43.267-18.476-15.25-1.92-30.044-.133-43.954 5.273-16.607 6.455-30.144 17.418-40.48 32.48-7.474 10.891-12.753 22.27-14.643 35.316-1.098 7.586-.92 8.012 6.74 8.016 40.63.02 81.259.022 122.888.031zM834.752 213.092c2.03 2.482 4.517 1.825 6.767 1.83 22.492.05 44.984.004 67.476.059 6.456.016 8.665 2.444 7.761 7.947-.678 4.128-3.271 5.349-7.113 5.325-13.66-.086-27.323-.055-40.985-.07-9.163-.01-18.327-.057-27.49-.023-6.036.022-7.082 1.056-7.091 6.921-.023 13.995.104 27.991-.062 41.984-.057 4.812 1.646 9.159 2.865 13.597 5.689 20.718 19.502 35.737 36.103 48.044 17.34 12.856 37.739 15.76 58.784 13.967 15.312-1.304 28.437-8.182 40.997-16.804 11.208-7.693 19.121-18.115 25.578-29.459 6.754-11.865 10.528-25.03 10.457-38.98-.01-1.83-.134-3.71.227-5.479.717-3.513 3.604-4.08 6.552-4.04 2.654.034 4.59 1.437 4.597 4.244.027 10.322.612 20.714-.377 30.949-1.072 11.096-6.718 20.706-13.116 29.685-8.445 11.853-18.334 22.601-30.645 30.23-10.466 6.484-21.891 11.083-34.388 13.772-10.317 2.22-20.375 2.357-30.524 2.044-8.03-.246-15.854-2.902-23.625-5.241-10.025-3.017-18.67-8.392-27.125-14.337-10.477-7.366-18.964-16.535-25.937-27.196-11.03-16.863-16.222-35.136-15.8-55.51.664-31.975.164-63.974.15-95.963-.003-6.112 2.877-10.87 6.544-10.746 3.622.122 8.63 6.124 8.686 10.927.14 11.827.046 23.657.1 35.486.01 2.154.279 4.306.634 6.837zM773.267 159c.002 66.3.002 132.1.012 197.9 0 3.175.08 6.276-2.032 9.05-1.53 2.01-3.12 3.466-5.801 3.002-2.606-.451-4.887-1.556-5.687-4.248-1.273-4.285-2.916-8.465-2.81-13.11 1.006-44.463-.357-88.934.239-133.394.546-40.809.259-81.615.41-122.422.022-5.821.13-11.65-.115-17.462-.151-3.573 1.152-6.583 2.99-9.321 1.552-2.313 3.627-4.799 6.92-3.86 3.294.94 5.171 3.568 5.74 6.919.277 1.623.135 3.323.135 4.988.004 27.152 0 54.305 0 81.958zM747.677 41.13c-7.1-12.558-3.188-23.942 6.319-31.006 7.868-5.846 24.81-2.308 29.818 5.325 6.073 9.258 5.696 24.861-5.683 31.96-10.008 6.242-22.977 3.976-30.454-6.28m17.15-18.102c-3.478.807-5.635 2.969-5.471 6.55.133 2.912 2.044 4.9 5.05 5.23 3.635.399 7.16.06 8.244-4.328.88-3.56-2.44-6.977-7.823-7.452z" opacity="1.000000"/></svg>