<svg xmlns="http://www.w3.org/2000/svg" width="100" height="40"><path fill="#f88131" d="M26.129.055a4 4 0 0 0-.125.32c-.113.324-.469 1.297-1.16 3.172-.344.926-.336.871-.16.957.062.027.257.11.425.172.676.265 1.762.793 2.555 1.246.711.406 1.766 1.094 1.766 1.148 0 .02-.028.07-.063.114-.035.046-.285.386-.554.761-.266.371-.739 1.032-1.051 1.461-.309.43-.637.887-.727 1.016-.09.125-.297.41-.453.633-.16.218-.488.675-.723 1.011l-.566.786c-.07.093-.273.378-.453.632-.18.25-.41.578-.52.723a109 109 0 0 0-.867 1.211l-.488.68c-.172.234-.442.613-.606.84a145 145 0 0 1-1.14 1.597c-.192.266-.953 1.328-1.098 1.524-.574.82-1.031 1.449-1.043 1.449-.008 0-.238-.313-.512-.695-.27-.383-.695-.985-.945-1.333-.516-.707-1.121-1.55-1.531-2.128-.152-.215-.527-.735-.832-1.16-.309-.426-.64-.891-.738-1.028-.293-.41-.766-1.07-2.067-2.879-.265-.367-.695-.96-.953-1.324-.254-.36-.625-.875-.816-1.14-.188-.266-.454-.633-.579-.813l-.644-.899c-.227-.312-.586-.812-.797-1.109-.215-.297-.484-.668-.598-.828-.117-.16-.332-.465-.484-.68-.34-.496-.695-.972-.777-1.047l-.059-.058-2.863-.008c-1.57 0-2.867.004-2.88.016-.023.023.017.082.602.89.465.637.583.805 1.086 1.508l.504.703c.137.188.489.688.79 1.106.296.418.695.976.89 1.242l.68.945c.183.254.418.574.52.715.1.137.491.684.863 1.207.375.527.769 1.082.882 1.234.11.149.332.461.496.688.16.23.485.68.72 1.004.23.32.507.71.616.863l.34.473 1.04 1.449c.421.598.628.879.91 1.266.488.675.722 1 .867 1.207.164.234.261.375.742 1.039.176.242.43.597.574.796.828 1.16 1.531 2.145 1.773 2.473.598.82.774 1.078.793 1.156.02.063.028 2.188.028 6.852 0 6.422.004 6.766.039 6.773.035.008 4.144.008 4.527-.004l.145-.003.004-6.825.007-6.828.07-.101c.044-.051.2-.274.356-.489.153-.218.442-.609.637-.879l.785-1.093c.234-.332.55-.774.695-.977.684-.945.832-1.148 1.325-1.84.476-.668.902-1.261 1.652-2.304.445-.614.789-1.094.918-1.282.07-.097.41-.574.766-1.062.738-1.024.953-1.324 2.113-2.953.469-.656.969-1.352 1.11-1.543.14-.192.44-.613.675-.938.227-.324.422-.593.43-.593.039 0 .945 1.128 1.226 1.52.95 1.339 1.805 2.972 2.418 4.628.348.941.711 2.234.649 2.297-.016.015-.192.066-.395.12-.73.185-1.351.423-2.137.821-.476.239-.738.39-1.199.703a11 11 0 0 0-2.539 2.426 10.5 10.5 0 0 0-1.805 3.793c-.21.863-.285 1.418-.3 2.254-.024 1.184.082 2.188.336 3.152.23.871.636 1.86 1.066 2.586.996 1.696 2.242 2.965 3.89 3.953.598.36 1.04.567 1.903.891.73.274 1.766.496 2.613.563.383.03 1.524.03 1.903 0 .601-.047 1.449-.211 2.101-.407.496-.148.59-.183 1.305-.48.43-.18 1.101-.547 1.601-.871.43-.285 1.125-.836 1.532-1.215.101-.094.195-.184.21-.191.067-.055.786-.864.938-1.055a10.6 10.6 0 0 0 1.516-2.594c.543-1.371.863-2.7 1.07-4.426.082-.66.086-.715.129-1.437.062-1 .035-2.946-.055-3.95a58 58 0 0 0-.289-2.546 88 88 0 0 1-.308-2.242 28 28 0 0 0-.067-.567 18 18 0 0 1-.16-2.59c0-1.156.05-1.718.23-2.574.145-.684.301-1.148.583-1.727.199-.41.453-.812.769-1.222.871-1.117 2.145-1.957 3.55-2.344.282-.074.942-.187 1.317-.219.762-.062 1.781.051 2.551.293 1.285.399 2.344 1.055 3.242 2.016.7.746 1.238 1.68 1.555 2.691.183.598.305 1.434.348 2.403l.015.367-.074-.02a4 4 0 0 1-.398-.152c-.965-.414-1.68-.586-2.731-.664a6 6 0 0 0-1.184.05 7 7 0 0 0-2.66.942c-.55.348-.902.633-1.316 1.059-.934.968-1.48 2.172-1.7 3.718-.03.227-.038.438-.038.875 0 .707.03.977.191 1.707.25 1.125.82 2.133 1.695 2.993.95.93 2.055 1.48 3.493 1.742.261.047.355.05 1 .05.625 0 .746-.003 1.03-.05a6.4 6.4 0 0 0 2.087-.684c.836-.426 1.535-.992 2.246-1.808.14-.168.273-.301.285-.301.031 0 .039.023.191.656.282 1.156.364 1.922.301 2.809-.094 1.355-.45 2.46-1.152 3.605a8.3 8.3 0 0 1-2.133 2.27c-.742.523-1.684.96-2.484 1.148a8 8 0 0 1-1.551.223 7.4 7.4 0 0 1-3.598-.703c-.472-.223-1.18-.66-1.48-.914a.4.4 0 0 0-.13-.09c-.034 0-.198.195-.64.75-.222.277-.488.61-.597.738-.208.25-.59.719-1.063 1.313-.16.199-.348.43-.414.503l-.184.235c-.058.094-.058.101-.023.156.113.176 1.117.856 1.902 1.285 1.41.778 3.285 1.332 4.856 1.446.43.03 1.644.03 2.039 0 .71-.055 1.758-.247 2.394-.438 1.645-.5 2.891-1.14 4.188-2.152.57-.442 1.289-1.133 1.797-1.715.726-.84 1.46-1.988 1.863-2.914.484-1.117.687-1.758.937-2.98.06-.294.133-.91.172-1.383.157-2.043-.28-4.477-1.18-6.563-.386-.902-1.003-2.02-1.417-2.582a2 2 0 0 1-.168-.238c-.008-.02.008-.14.031-.27.078-.398.18-1.094.215-1.484.066-.711.137-1.985.117-2.164a19 19 0 0 1-.035-.656c-.043-1.079-.168-2-.379-2.86-.14-.57-.242-.887-.441-1.406-.079-.2-.141-.375-.137-.387a22.28 22.28 0 0 1 6.281-3.629c1.555-.582 2.934-.937 4.484-1.156.707-.098.77-.105 2.047-.187a10 10 0 0 1 1.352 0c.164.011.465.03.672.046 1.344.09 2.625.368 3.613.778.547.222 1.438.715 1.898 1.047 1.137.82 1.922 1.718 2.446 2.793.293.597.433 1.011.55 1.601.06.3.087 1.192.047 1.563-.14 1.293-.75 2.507-1.808 3.601a9.3 9.3 0 0 1-1.418 1.184c-.504.34-1.352.793-1.965 1.054-.773.329-2.031.688-2.883.829-.449.07-.793.12-.902.136-.223.024-1.156.121-1.387.14l-.18.017V8.566h-4.687v26.461h-.086c-.047-.004-.344-.011-.656-.023-1.613-.063-2.008-.078-2.172-.078l-.184-.004-.015.148c-.012.086-.028.493-.043.91-.012.418-.04 1.04-.059 1.375-.039.762-.101 2.07-.101 2.2v.093l.328.012c.554.024 1.324.063 1.992.098.351.02.945.047 1.316.058s1.032.032 1.465.047c.938.032 4.41.016 5.133-.023.266-.012.71-.035.992-.047a67 67 0 0 0 1.774-.117c1.843-.137 3.984-.547 5.453-1.047a13 13 0 0 0 1.851-.781c1.117-.567 2-1.188 2.805-1.985.898-.886 1.406-1.562 2.039-2.718.48-.88.805-1.903.957-3.024.059-.45.059-1.957 0-2.348-.117-.757-.207-1.168-.371-1.671-.469-1.45-1.152-2.633-2.121-3.672a9.2 9.2 0 0 0-2.617-1.977 8 8 0 0 0-1.102-.45c-.176-.054-.203-.073-.16-.112.016-.016.117-.11.223-.204.351-.312.89-.937 1.289-1.496.8-1.117 1.289-2.105 1.652-3.351.176-.59.3-1.246.355-1.852.043-.445.016-1.785-.039-2.222a11 11 0 0 0-1.746-4.602c-.484-.73-.851-1.176-1.515-1.848-.848-.851-1.414-1.316-2.399-1.953-.476-.308-1.511-.847-2.097-1.093a18 18 0 0 0-2.16-.708c-.762-.187-2-.37-2.997-.449-.175-.008-.449-.031-.613-.043a27 27 0 0 0-2.262 0 45 45 0 0 1-.644.043c-.98.07-2.121.235-3.215.465-.43.094-1.605.387-1.953.492-.848.258-1.809.594-2.48.875-.942.39-1.614.711-2.454 1.153-1.343.71-2.832 1.672-3.898 2.527a4 4 0 0 1-.266.191l-.078.04-.328-.294a11.6 11.6 0 0 0-2.004-1.437c-1.406-.813-3.082-1.34-4.742-1.504-.41-.039-1.649-.05-2.067-.02a11.48 11.48 0 0 0-6.035 2.278 13.5 13.5 0 0 0-1.949 1.855c-1.004 1.2-1.816 2.778-2.23 4.332-.606 2.25-.684 4.649-.266 7.989.023.203.102.761.168 1.246.41 2.867.492 3.793.492 5.437 0 1.434-.078 2.387-.297 3.555-.125.648-.199.953-.379 1.484a7 7 0 0 1-.554 1.282 6.6 6.6 0 0 1-2.282 2.316c-.652.395-1.43.691-2.09.797a5 5 0 0 1-.796.082 5.92 5.92 0 0 1-4.614-1.82 6.16 6.16 0 0 1-1.671-3.313c-.032-.215-.04-.402-.04-.957 0-.758.024-.941.172-1.516.243-.945.79-1.918 1.438-2.57.3-.3.543-.496.937-.762.633-.43 1.532-.808 2.352-.988.883-.191 1.723-.238 3.437-.195.422.012.614.012.625-.008.016-.031-.043-1.328-.09-1.875a25 25 0 0 0-1.417-6.43c-.239-.656-.243-.675-.473-1.21a24 24 0 0 0-2.172-4.044c-.644-.964-1.02-1.453-2.125-2.718-.277-.32-1.277-1.328-1.695-1.711a30 30 0 0 0-2.043-1.688c-.356-.27-1.91-1.27-2.606-1.676A28 28 0 0 0 27.27.441 36 36 0 0 0 26.18 0c-.008 0-.032.023-.051.055m34.844 18.957c.656.062 1.355.39 2.125.984.093.074.18.16.187.188.016.062-.125.351-.379.78a4.6 4.6 0 0 1-.683.919c-.352.37-.649.566-1.055.699a2.4 2.4 0 0 1-.969.047c-.59-.14-.992-.465-1.187-.965a2.6 2.6 0 0 1-.13-.75c0-.215.067-.64.126-.805.176-.492.64-.89 1.21-1.039.188-.05.493-.093.571-.082.027.004.11.012.184.024m26.843 4.754c1.07.05 2.036.218 2.922.515 1.086.36 1.852.852 2.453 1.567a5.04 5.04 0 0 1 1.118 2.558c.046.375.046.61.004.989a3.8 3.8 0 0 1-.45 1.46c-.652 1.262-1.617 2.192-2.957 2.844-1.129.551-2.52.906-4.496 1.14-.547.067-1.062.11-2.25.188a35 35 0 0 1-2.238.082l-1.067.016.004-5.188.008-5.19.196-.044c.105-.023.347-.09.535-.144.722-.215 1.62-.407 2.664-.575 1.3-.207 2.39-.273 3.554-.218m0 0"/></svg>