<svg xmlns="http://www.w3.org/2000/svg" width="165px" height="180px" viewBox="0 0 165 180"><path d="M27.52.07c-2.118.16-2.73.262-4.555.746-3.899 1.004-7.824 3.22-10.48 5.883-4.294 4.285-6.95 10.07-7.97 17.34-.206 1.457-.265 7.285-.09 9.313.25 2.957 1.243 7.43 2.454 11.086 1.473 4.417 4.059 9.648 6.758 13.683 4.09 6.09 9.254 11.277 15.195 15.242 1.828 1.223 5.36 3.203 5.695 3.203.086 0 .22.059.305.133.074.074.555.305 1.082.524 6.86 2.87 14.129 3.496 20.219 1.734 1.488-.437 3.75-1.371 4.785-1.98.379-.22.758-.41.832-.41.059 0 .148-.044.176-.118.031-.086 1.14-.86 1.984-1.383.117-.086.469.192 1.098.86 1.707 1.851 2.39 2.535 2.539 2.535.07 0 1.633-1.414 3.457-3.145l3.316-3.164-.57-.597c-.309-.336-1.21-1.266-2.016-2.098-.789-.832-1.457-1.559-1.488-1.633-.027-.058.25-.683.586-1.398 1.648-3.395 2.598-6.672 3.11-10.723.203-1.605.246-2.683.171-5.539-.101-4.691-.613-8.012-1.91-12.398-2.875-9.66-7.766-17.895-14.746-24.801-3.953-3.902-7.91-6.746-12.71-9.149-1.434-.714-3.782-1.707-4.032-1.707-.086 0-.363-.101-.613-.203-.875-.406-4.86-1.383-6.817-1.66-1.562-.234-4.07-.32-5.765-.176Zm3.578 9.254c2.832.188 7.195 1.719 10.656 3.758 5.777 3.383 10.96 8.496 15.062 14.82 3.094 4.778 5.211 9.602 6.524 14.86.847 3.367 1.168 5.582 1.242 8.379.043 2.332-.074 4.007-.422 5.683-.133.64-.277 1.297-.308 1.442-.028.16-.188.714-.364 1.226l-.32.946-.746-.786c-.41-.437-1.473-1.547-2.352-2.476l-1.605-1.692-3.281 3.09c-1.813 1.703-3.286 3.16-3.286 3.235 0 .07 1.254 1.457 2.774 3.074 1.531 1.617 2.773 3.015 2.773 3.101 0 .25-2.175 1.387-3.43 1.809-3.226 1.078-7.183 1.105-10.804.07-5.02-1.425-9.996-4.398-14.379-8.593-4.625-4.446-7.969-8.934-10.7-14.368-2.523-5.027-4.16-10.359-4.698-15.328-.262-2.363-.118-6.793.293-8.699 1.285-6.031 4.011-9.953 8.539-12.227 1.312-.656 3.312-1.222 4.89-1.367 1.196-.133 1.59-.117 3.942.043Zm0 0" style="stroke:none;fill-rule:nonzero;fill:#fff;fill-opacity:1"/><path d="M86.04 11.363c-1.532.102-2.962.219-3.18.278-.438.101-.426-.043-.235 2.71.086 1.079.219 3.145.293 4.59a970.4 970.4 0 0 0 .289 4.59c.09 1.078.223 3.074.293 4.442.074 1.355.203 3.367.293 4.445.144 1.98.336 4.766.582 8.816.074 1.196.207 3.364.293 4.809.203 2.984.102 10.328-.145 11.758-.101.511-.234 1.27-.308 1.676-.64 3.687-1.195 5.753-2.203 8.347-.614 1.59-1.637 3.79-2.278 4.883-.89 1.531-1.195 2.012-1.898 3.059-.438.64-.844 1.195-.89 1.238-.06.043-.321.394-.583.773-.672.993-2.101 2.477-3.3 3.438-1.094.89-2.774 2.086-3.137 2.246-.117.059-.54.289-.95.539-3.359 2.008-8.085 3.684-12.261 4.34-2.613.41-3.328.469-6.262.469-2.95 0-4.043-.075-6.363-.454-2.469-.394-6.106-1.382-8.395-2.316-5.898-2.36-11.883-6.121-16.422-10.3-.367-.337-.804-.731-.964-.876a83.956 83.956 0 0 1-1.664-1.5c-.743-.687-1.43-1.238-1.532-1.238-.101 0-1.578 1.355-3.285 3.016-2.7 2.636-3.094 3.074-3.008 3.363.086.351 2.512 2.71 4.832 4.707.641.539 1.328 1.137 1.52 1.328.203.172.86.684 1.457 1.137.613.449 1.723 1.265 2.484 1.82.758.567 1.414 1.02 1.473 1.02.059 0 .293.16.512.351.218.188.582.438.789.54.203.113.742.433 1.18.71 1.578 1.035 5.066 2.828 8.175 4.184 1.75.773 5.723 2.054 7.809 2.535 4.746 1.078 7.797 1.371 12.918 1.238 1.883-.043 3.797-.144 4.234-.219.438-.074 1.3-.218 1.899-.304.597-.09 1.328-.219 1.605-.293.277-.059.875-.188 1.313-.293 2.921-.594 7.402-2.2 10.367-3.715 2.113-1.078 5.894-3.41 6.273-3.86.047-.042.309-.25.586-.437 1.211-.844 3.957-3.527 5.125-5.027 1.852-2.36 3.766-5.29 4.918-7.531.188-.395.41-.73.465-.774.074-.043.293.438.484 1.047.918 2.887 2.625 6.75 4.012 9.078.629 1.05 1.754 2.77 1.93 2.914.043.047.261.336.496.656.789 1.079 3.066 3.207 4.539 4.254 2.058 1.473 3.797 2.246 6.465 2.914 1.418.352 1.828.38 4.484.395 2.961.016 3.398-.043 5.766-.656 5.765-1.528 11.53-5.813 17.222-12.805 2.22-2.727 6.32-8.86 8.262-12.36.191-.331.527-.917.73-1.308a128.224 128.224 0 0 0 2.133-3.89c1.43-2.727 5.227-10.462 5.227-10.669 0-.027.187-.464.422-.96.234-.497.512-1.137.64-1.415.118-.277.368-.843.543-1.238.438-.976.614-1.398 1.211-2.766.262-.644.672-1.562.875-2.042.203-.48.586-1.399.832-2.04.528-1.324.848-2.07 1.036-2.433.074-.145.132-.379.132-.524 0-.148.059-.32.133-.41.059-.07.625-1.441 1.238-3.043a827.67 827.67 0 0 0 1.27-3.25c.277-.683.41-1.004.719-1.851.172-.48.379-1.004.437-1.164.059-.16.246-.657.406-1.094.16-.438.672-1.793 1.11-3 .453-1.227.82-2.348.82-2.508 0-.32-.09-.363-3.066-1.398-1.973-.7-3.082-1.106-4.133-1.532-.219-.085-.656-.16-.977-.16-.527 0-.57.043-.73.54a80.436 80.436 0 0 1-.613 1.718c-.235.645-.57 1.531-.73 1.969-.161.437-.349.918-.423 1.05a1.295 1.295 0 0 0-.133.481c0 .117-.058.332-.128.48-.176.348-.352.77-.891 2.215-.266.684-.527 1.368-.602 1.528-.054.164-.39 1.008-.726 1.894a96.7 96.7 0 0 1-.848 2.188c-.144.32-.379.945-.539 1.383-.148.437-.324.859-.383.933a.748.748 0 0 0-.113.336c0 .102-.176.55-.383 1.02-.203.465-.48 1.078-.597 1.355-.13.277-.407.918-.641 1.414-.234.492-.426.946-.426 1.004 0 .102-.96 2.375-1.547 3.672-.187.422-.347.8-.347.844 0 .043-.192.48-.426.976-.235.496-.512 1.137-.64 1.414-1.653 3.817-6.368 13.215-7.11 14.207-.059.075-.336.567-.613 1.094-.747 1.367-3.27 5.461-4.555 7.313-1.11 1.632-3.008 4.125-3.809 5.011-.074.09-.496.586-.933 1.094-1.36 1.602-2.98 3.133-5.141 4.852-2.875 2.304-6.95 3.644-9.91 3.28-3.594-.437-5.84-1.952-8.309-5.597-1.37-2.023-2.332-4.05-3.398-7.14-1.11-3.204-1.594-4.809-2-6.672-1.36-6.031-1.942-10.258-2.203-15.766-.266-5.465-.614-11.629-1.024-17.848-.074-1.238-.219-3.308-.293-4.59-.086-1.285-.218-3.222-.293-4.3a249.12 249.12 0 0 1-.277-4.297 948.19 948.19 0 0 0-.566-8.742l-.102-1.457-1.46-.016c-.806-.015-2.716.059-4.25.16Zm0 0" style="stroke:none;fill-rule:nonzero;fill:#ef87b5;fill-opacity:1"/><path d="M122.11 99.531c-.32.028-1.692.16-3.063.293-1.36.114-3.27.32-4.234.438-.965.113-2.25.273-2.848.347-1.27.16-3.02.395-4.38.598-.522.086-1.444.219-2.042.293-.598.086-1.461.203-1.898.273-.438.075-1.254.192-1.825.278-2.41.379-2.816.437-3.648.597-.484.075-1.594.25-2.484.38-1.852.261-8.333 1.355-10.801 1.824-.395.085-1.051.203-1.457.273-.688.133-1.184.234-2.805.598-.395.074-.918.191-1.168.234-.64.102-.629.32.191 1.879.38.715.961 1.852 1.313 2.535.512 1.02 2.789 7.535 3.562 10.2.102.367.247.89.336 1.167.07.278.188.668.246.875.06.203.192.653.293 1.02.102.363.278.945.38 1.308.261.86 1.812 6.895 1.972 7.68.16.758.348 1.617.566 2.594.102.394.235.96.293 1.238.145.672.746 3.469.832 3.934.043.203.192.992.352 1.75.336 1.691 1.195 7.125 1.43 9.035.101.758.234 1.777.304 2.258.164 1.078.383 3.101.586 5.316.075.918.219 2.465.305 3.426.105.976.191 4.969.207 9.078.012 5.668.07 7.371.203 7.445.203.13 1.242.22 5.664.465 1.707.102 3.153.145 3.195.09.543-.543.383-14.879-.23-20.867-.367-3.528-.602-5.582-.879-7.578-.07-.567-.203-1.516-.277-2.114-.16-1.18-.348-2.445-.598-3.933-.64-3.875-.7-4.223-1.168-6.528-.683-3.41-1.195-5.683-1.457-6.527a2.586 2.586 0 0 1-.148-.715c0-.144-.059-.465-.133-.71-.07-.25-.203-.715-.274-1.036-.09-.32-.222-.86-.308-1.21-.086-.337-.219-.86-.293-1.165a105.687 105.687 0 0 0-1.195-4.402c-.22-.758-.48-1.645-.555-1.965-.32-1.27-1.14-4.11-1.313-4.52-.41-.945-.89-2.824-.761-2.898.101-.074 1.316-.277 5.707-.96 3.754-.599 3.328-.54 6.715-1.02 1.52-.22 1.914-.278 2.921-.438 2.32-.379 6.438-.934 8.54-1.168 3.546-.379 4.234-.45 6.058-.582 3.387-.246 6.625.043 9.559.875.324.086.73.203.922.246.175.047.363.133.406.207.047.07.176.13.293.13.351 0 2.074.858 3.36 1.69 2.362 1.5 4.01 3.38 5.194 5.887.48 1.02.598 1.559.657 3.133.074 1.633-.075 2.375-.715 3.57-1.344 2.493-3.504 4.168-7.403 5.739-.523.207-1.05.379-1.195.379-.144 0-.308.058-.351.148-.043.07-.246.144-.438.144-.187 0-.394.06-.437.145-.043.074-.22.148-.38.148a1.51 1.51 0 0 0-.538.13c-.133.085-.832.277-1.563.452-.715.16-1.547.364-1.824.438-1.766.465-5.578 1.164-8.688 1.602a68.04 68.04 0 0 0-2.058.304c-.48.074-1.168.133-1.504.133-.336 0-.844.102-1.137.219l-.527.219.105 1.718c.059.934.16 2.754.23 4.035.208 3.833.294 4.473.645 4.766.176.133.395.246.48.262.235 0 3.243 1.152 3.868 1.472.148.07.383.13.527.13a.86.86 0 0 1 .41.117c.07.074.422.218.786.32.367.117.73.25.804.293.22.144 2.875 1.164 6.567 2.508.644.23 1.332.492 1.535.582.203.086.512.218.7.277l.655.262c.176.07.586.219.907.32.32.086.847.29 1.168.438.32.128 1.082.421 1.68.64.597.203 1.284.465 1.53.582.235.102 1.094.422 1.899.73a337.87 337.87 0 0 1 4.086 1.528l.805.293c.64.219.918.336 1.78.715.38.172.743.305.817.305.102 0 4.875 1.761 5.547 2.039.176.09.48.203.688.293.203.07.511.203.699.277.176.07.555.203.832.305.586.203.933.336 1.46.554.204.07.598.219.876.32.48.16.672.231 1.504.567 2.101.848 3.984 1.5 4.347 1.531.453.016.485-.031.907-1.078a105.5 105.5 0 0 0 .714-1.894c.16-.438.352-.934.41-1.094.06-.16.188-.524.294-.8.203-.599.336-.962.554-1.458.496-1.164.598-2.039.29-2.3-.102-.09-1.11-.481-2.231-.907a88.05 88.05 0 0 1-3.024-1.148c-.187-.059-.496-.192-.699-.278-.207-.074-.597-.219-.879-.32-.273-.102-.64-.234-.8-.293-.16-.059-.848-.32-1.532-.582-.687-.246-1.402-.524-1.593-.598-.188-.074-1.137-.437-2.118-.8-.96-.364-1.894-.715-2.054-.79-.164-.058-.528-.187-.805-.289-.277-.101-.656-.234-.832-.308-.191-.07-.48-.188-.656-.262-.192-.07-.57-.203-.848-.305-.277-.101-.656-.234-.832-.304l-.656-.262a44.925 44.925 0 0 1-.774-.309c-.41-.16-1.957-.742-6.789-2.55-1.008-.364-1.969-.727-2.144-.813-1.43-.586-4.059-1.574-4.469-1.676-.555-.133-.625-.324-.145-.437 1.985-.453 6.118-1.766 7.079-2.262.148-.07.335-.129.425-.129.524 0 5.414-2.68 5.825-3.191.043-.043.335-.278.656-.508 1.05-.774 3.195-3.078 4.043-4.328 2.512-3.73 3.46-7.824 2.758-11.863-.07-.407-.172-.989-.23-1.31-.06-.32-.15-.714-.224-.874-.054-.16-.187-.582-.289-.95-.32-1.09-1.695-3.831-2.656-5.273-1.097-1.633-3.52-4.125-5.226-5.375-1.094-.789-3.196-2.027-4.309-2.535-1.984-.89-2.262-1.008-3.43-1.387-3.515-1.12-6.261-1.574-9.996-1.66-1.445-.027-2.89-.027-3.215 0Zm0 0" style="stroke:none;fill-rule:nonzero;fill:#c3d773;fill-opacity:1"/><path d="M38.906 101.352c-3.488.597-6.422 1.75-8.613 3.382-2.277 1.676-4.262 4.079-5.59 6.73-1.637 3.278-2.234 6.731-1.855 10.638.191 1.894.308 2.492.89 4.59.657 2.288 1.985 5.363 3.301 7.605.465.816.348.96-.512.656-.336-.117-1.066-.262-1.636-.305-7.457-.613-11.676.188-16.524 3.145-1.344.816-4.715 3.992-4.715 4.43 0 .058-.187.32-.437.597-.235.262-.438.582-.438.7 0 .117-.074.218-.16.218-.074 0-.101.059-.058.149.043.07.027.144-.059.144-.133 0-1.328 2.332-1.328 2.621 0 .075-.133.422-.277.774a8.55 8.55 0 0 0-.438 1.34c-.102.394-.25.976-.32 1.27-.192.741-.176 7.663.011 8.523.41 1.777.47 2.023.602 2.3.059.16.29.801.496 1.43 1.152 3.524 4.219 7.926 7.211 10.344.613.496 1.137.933 1.18.976.16.203 2.484 1.75 2.613 1.75.074 0 .16.055.191.13.059.16 2.758 1.515 3.809 1.921.426.164.89.352 1.05.426.16.07.762.262 1.317.437.567.172 1.121.348 1.238.391.118.043.32.102.438.117.117.016.645.133 1.168.262 1.316.309 2.437.527 3.2.613 1.925.219 5.386.364 6.655.293 2.934-.176 5.122-.379 5.766-.512 4.027-.832 6.566-1.59 6.566-1.953 0-.144-.336-1.047-1.386-3.8-1.489-3.907-1.852-4.825-1.953-4.926-.059-.059-.38-.016-.688.101-.832.336-3.723 1.036-5.168 1.266-1.851.309-8.262.25-10-.07-4.086-.774-7.297-2.418-10.289-5.29-3.184-3.03-4.816-6.558-4.816-10.316 0-1.879.261-3.09.949-4.52 2.406-4.968 8.683-7.253 15.324-5.593 1.3.336 6.16 1.922 7.738 2.535 1.446.555 1.489.57 2.7 1.137.597.277 1.359.613 1.68.742.32.148.859.379 1.21.54.336.148.746.276.906.276.188 0 .684-.523 1.516-1.644.672-.89 1.594-2.129 2.059-2.727.453-.597.965-1.28 1.14-1.515.176-.23.453-.598.63-.801.304-.379.64-.945.64-1.094 0-.043-1.606-1.687-3.563-3.64-3.793-3.805-4.918-5.102-6.523-7.504-1.754-2.637-2.848-5.203-3.43-8.028-.367-1.808-.234-4.504.29-6.047.991-2.914 3.109-4.824 6.437-5.785 1.023-.293 1.488-.336 3.797-.336 3.46 0 5.402.422 9.12 1.996 1.958.817 5.579 2.797 7.52 4.094 2.278 1.531 5.942 4.778 8.102 7.168.422.48 1.152 1.27 1.605 1.75.438.48 1.035 1.164 1.313 1.531.98 1.282 2.496 3.059 2.613 3.059.117 0 2.54-1.867 3.824-2.93.438-.363 1.051-.86 1.387-1.093 1.563-1.106 2.102-1.56 2.102-1.762 0-.567-4.348-5.727-7.72-9.121-6.073-6.164-12.921-10.375-20.015-12.34-.363-.106-.816-.234-1.02-.293a43.068 43.068 0 0 0-2.19-.567 17.435 17.435 0 0 1-1.02-.234c-1.914-.437-7.797-.656-9.563-.351Zm0 0" style="stroke:none;fill-rule:nonzero;fill:#06bded;fill-opacity:1"/></svg>