<svg xmlns="http://www.w3.org/2000/svg" width="24px" height="24px" viewBox="0 0 24 24">
    <title>YouTube</title>
    <path fill="currentColor" stroke="none" d="M 9.699219 15.34375 L 9.699219 8.65625 L 15.578125 12 Z M 22.777344 6.550781 C 22.511719 5.574219 21.761719 4.820312 20.808594 4.554688 L 20.785156 4.550781 C 18.390625 4.246094 15.621094 4.070312 12.8125 4.070312 C 12.527344 4.070312 12.242188 4.074219 11.957031 4.078125 L 12 4.074219 C 11.757812 4.074219 11.472656 4.070312 11.1875 4.070312 C 8.378906 4.070312 5.605469 4.246094 2.886719 4.582031 L 3.210938 4.546875 C 2.238281 4.820312 1.488281 5.574219 1.226562 6.53125 L 1.222656 6.550781 C 0.925781 8.132812 0.753906 9.953125 0.753906 11.8125 C 0.753906 11.878906 0.753906 11.945312 0.753906 12.007812 L 0.753906 12 C 0.753906 12.054688 0.753906 12.121094 0.753906 12.1875 C 0.753906 14.046875 0.925781 15.867188 1.253906 17.628906 L 1.222656 17.445312 C 1.488281 18.421875 2.238281 19.175781 3.191406 19.445312 L 3.214844 19.449219 C 5.609375 19.753906 8.378906 19.925781 11.1875 19.925781 C 11.472656 19.925781 11.757812 19.925781 12.042969 19.921875 L 12 19.921875 C 12.242188 19.925781 12.527344 19.929688 12.8125 19.929688 C 15.625 19.929688 18.394531 19.753906 21.113281 19.417969 L 20.789062 19.449219 C 21.761719 19.179688 22.511719 18.425781 22.773438 17.46875 L 22.777344 17.449219 C 23.078125 15.867188 23.246094 14.046875 23.246094 12.1875 C 23.246094 12.121094 23.246094 12.054688 23.246094 11.992188 L 23.246094 12 C 23.246094 11.945312 23.246094 11.878906 23.246094 11.8125 C 23.246094 9.953125 23.074219 8.132812 22.75 6.367188 Z M 22.777344 6.550781 "/>
</svg>
