<?xml version="1.0" encoding="utf-8"?>
<svg xmlns="http://www.w3.org/2000/svg" width="251" zoomAndPan="magnify" viewBox="0 0 188.25 186.749995" height="249" preserveAspectRatio="xMidYMid meet" version="1.0">
  <defs>
    <clipPath id="2e4a891c20">
      <path d="M 10.046875 9.546875 L 178.121094 9.546875 L 178.121094 176.878906 L 10.046875 176.878906 Z M 10.046875 9.546875 " clip-rule="nonzero"/>
    </clipPath>
  </defs>
  <path fill="#afe1ff" d="M 165.171875 86.5 C 160.125 82.914062 154.382812 82.03125 148.472656 81.671875 C 136.308594 80.9375 124.882812 84.011719 113.804688 88.667969 C 112.25 89.324219 110.558594 89.867188 109.375 91.25 C 112.605469 93.671875 114.871094 93.75 118.066406 92.046875 C 130.617188 85.359375 143.839844 82.402344 158.019531 85.296875 C 160.625 85.832031 163.230469 86.507812 165.390625 88.203125 C 168.207031 90.414062 168.59375 94.246094 166.070312 96.378906 C 164.203125 97.960938 162.191406 99.351562 159.777344 100.164062 C 150.898438 103.136719 141.871094 102.15625 132.917969 101.078125 C 126.011719 100.242188 119.511719 97.621094 112.945312 95.410156 C 109.019531 94.085938 105.128906 92.648438 101.210938 91.304688 C 98.34375 90.316406 95.453125 89.402344 92.578125 88.433594 C 92.09375 88.269531 91.515625 88.167969 91.363281 87.539062 C 101.945312 72.726562 110.105469 56.777344 114.90625 38.941406 C 111.660156 38.3125 108.710938 39.269531 105.542969 39.125 C 102.632812 47.34375 99.949219 55.578125 96.125 63.378906 C 92.25 71.277344 88.066406 78.953125 82.5 85.640625 C 81.421875 85.832031 80.597656 85.597656 79.742188 85.386719 C 76.179688 84.511719 72.632812 83.539062 69.027344 82.890625 C 59.507812 81.183594 49.949219 81.355469 40.433594 82.898438 C 34.878906 83.796875 29.371094 85.015625 24.703125 88.417969 C 18.8125 92.71875 20.210938 98.101562 24.390625 101.199219 C 26.871094 103.042969 29.898438 103.875 32.910156 104.503906 C 41.902344 106.355469 50.863281 106.199219 59.777344 103.929688 C 66.832031 102.128906 73.824219 100.1875 79.96875 96.0625 C 76.683594 93.964844 73.441406 93.644531 69.894531 95.78125 C 67.164062 97.425781 64.179688 98.664062 61.152344 99.746094 C 54.632812 102.074219 47.824219 102.570312 40.992188 102.734375 C 35.472656 102.859375 29.984375 102.527344 24.9375 99.8125 C 21.421875 97.925781 20.722656 93.324219 23.59375 90.503906 C 25.640625 88.492188 28.230469 87.480469 30.875 86.585938 C 37.402344 84.375 44.128906 84.996094 50.800781 85.429688 C 60.769531 86.085938 69.988281 89.800781 79.359375 92.824219 C 83.292969 94.09375 87.191406 95.464844 91.070312 96.90625 C 93.222656 97.707031 95.59375 97.960938 97.761719 99.367188 C 86.945312 114.324219 79.195312 130.523438 74.09375 148.398438 C 76.042969 148.054688 77.398438 148.59375 78.800781 148.59375 L 83.238281 148.59375 C 88.894531 131.691406 95.824219 115.476562 106.785156 101.25 C 111.476562 102.230469 115.832031 103.601562 120.335938 104.382812 C 129.40625 105.960938 138.445312 106.183594 147.507812 104.496094 C 153.761719 103.332031 160.027344 102.546875 165.300781 98.199219 C 169.351562 94.855469 169.507812 89.578125 165.171875 86.5 Z M 165.171875 86.5 " fill-opacity="1" fill-rule="nonzero"/>
  <path fill="#afe1ff" d="M 85.9375 67.589844 C 88.921875 67.320312 92.710938 64.238281 93.695312 61.433594 C 90.3125 64.230469 87.429688 67.957031 82.367188 66.1875 C 80.40625 64.265625 79.652344 61.890625 79.949219 59.253906 C 80.625 53.265625 82.550781 47.628906 85.046875 42.164062 C 85.480469 41.210938 86.265625 40.410156 86.3125 39.15625 C 86.011719 38.996094 85.847656 38.832031 85.671875 38.824219 C 83.933594 38.773438 82.191406 38.714844 80.449219 38.71875 C 76.785156 38.71875 76.421875 38.976562 75.585938 42.585938 C 75.046875 44.902344 74.488281 47.246094 74.300781 49.609375 C 73.910156 54.703125 74.097656 59.699219 77.34375 64.089844 C 79.523438 67.0625 82.523438 67.898438 85.9375 67.589844 Z M 103.558594 119.484375 C 99.746094 120.535156 96.769531 122.796875 94.675781 126.171875 L 94.703125 126.152344 C 95.148438 126.117188 95.5625 125.984375 95.941406 125.753906 C 96.324219 125.527344 96.636719 125.222656 96.875 124.84375 C 97.925781 123.042969 99.730469 122.292969 101.378906 121.34375 C 103.761719 119.980469 108.082031 120.542969 108.710938 124.640625 C 108.855469 125.5625 108.910156 126.496094 108.875 127.425781 C 108.613281 134.042969 106.496094 140.164062 103.769531 146.121094 C 103.472656 146.789062 102.769531 147.445312 103.34375 148.261719 C 105.40625 148.371094 107.414062 148.496094 109.421875 148.585938 C 111.351562 148.671875 112.496094 147.753906 113.046875 145.890625 C 113.6875 143.714844 114.046875 141.503906 114.304688 139.265625 C 114.878906 134.273438 114.929688 129.324219 112.949219 124.566406 C 111.765625 121.71875 106.363281 118.714844 103.558594 119.484375 Z M 103.558594 119.484375 " fill-opacity="1" fill-rule="nonzero"/>
  <path fill="#afe1ff" d="M 94.664062 126.210938 L 94.703125 126.140625 L 94.679688 126.160156 Z M 94.664062 126.210938 " fill-opacity="1" fill-rule="nonzero"/>
  <g clip-path="url(#2e4a891c20)"/>
</svg>